PathFileType	4	(X/Y/Z)	D:\TRACE\spotREDO_2-26-24\spot_Both_Motion_3_8-v60.trc
DataRate	CameraRate	NumFrames	NumMarkers	Units	OrigDataRate	OrigDataStartFrame	OrigNumFrames
100.00	100.00	      35	9	mm	100.00	3501	      7000
Frame#	Time	front left toe			Front right toe			aft left toe			aft right toe			Arm			FL body			FR body			AL Body			AR Body			
		X1	Y1	Z1	X2	Y2	Z2	X3	Y3	Z3	X4	Y4	Z4	X5	Y5	Z5	X6	Y6	Z6	X7	Y7	Z7	X8	Y8	Z8	X9	Y9	Z9	

3501	35.000	-118.20532	31.29476	-447.75580	318.15732	28.31367	-521.75342	-87.01204	19.44085	139.08769	337.97018	22.18410	109.53101	95.28284	748.16724	-728.31982	26.29346	602.42847	-542.08887	180.79932	607.40118	-552.29474	77.72793	554.54907	339.33936	224.90077	548.43591	332.05188	
3502	35.010	-118.11418	31.14142	-447.84741	318.35364	27.57500	-522.14642	-87.08022	19.48926	139.11908	338.01431	22.19755	109.53539	95.25641	748.15625	-728.66522	27.02939	602.22760	-540.79688	181.68011	607.16547	-551.06091	78.50504	554.27515	340.12607	225.66411	548.20746	333.02548	
3503	35.020	-118.20880	31.06850	-447.87180	318.36371	27.29217	-522.19873	-87.05233	19.61190	139.13893	338.01981	22.19951	109.51223	95.34517	748.04364	-728.86804	27.68804	602.00745	-539.70172	182.07007	606.89453	-550.10095	79.13667	554.08325	341.32492	226.49243	548.01813	334.15497	
3504	35.030	-118.04197	30.87481	-447.90558	318.39249	27.32147	-521.95154	-86.96673	19.61748	139.14339	338.03690	22.24278	109.51747	95.46576	747.86505	-729.00568	28.55667	601.75116	-538.74451	183.25394	606.49768	-548.90723	79.94461	553.98340	342.44757	227.24701	547.79150	335.18646	
3505	35.040	-117.78520	31.21768	-447.87805	318.42670	26.88851	-521.88153	-86.97358	19.59283	139.28465	338.03610	22.24733	109.59441	95.45116	747.71936	-729.15759	29.18881	601.40704	-537.54944	183.92400	606.33765	-547.93097	80.51453	553.96454	343.51245	227.62994	547.71155	336.37390	
3506	35.050	-118.00240	37.79289	-445.03970	319.09064	25.77753	-521.91992	-86.57079	19.50818	139.20093	338.38565	21.99050	109.69917	95.49567	747.62982	-729.21887	30.21015	600.81299	-536.68756	184.81487	606.07507	-546.82196	81.09966	553.35175	344.70145	228.55148	547.37823	337.48090	
3507	35.060	-114.84909	48.34301	-440.27930	319.86240	25.38709	-521.57452	-86.24787	19.56901	139.13261	338.82037	21.93383	109.84486	95.32423	747.64905	-729.15924	31.41439	600.07904	-535.80243	186.06503	605.89990	-545.71954	81.59087	552.69128	345.16574	228.41212	547.30878	338.46713	
3508	35.070	-114.51944	61.28543	-436.31177	319.76151	25.05835	-521.51538	-86.22723	19.49463	139.09892	338.75006	22.03549	109.81055	95.53912	747.57141	-729.20831	31.98749	599.54712	-535.17401	186.66110	605.59137	-545.07147	81.31474	552.41528	346.13290	228.65544	547.10968	339.21530	
3509	35.080	-116.23710	74.51562	-435.52219	319.81479	24.64610	-521.51837	-86.23217	19.67915	139.16226	338.60965	22.17003	109.79707	95.47065	747.60010	-729.27362	32.56321	598.72339	-534.17505	187.04106	605.20398	-544.17059	81.58173	552.06567	346.91287	229.08876	547.28162	340.21994	
3510	35.090	-118.96485	87.65263	-438.33591	319.52991	24.35019	-521.66235	-86.20789	19.84734	139.09189	338.68814	22.10873	109.71384	95.60975	747.69739	-729.04480	32.58757	598.32831	-533.48206	187.47087	604.91785	-543.15356	81.90228	551.82855	347.73251	229.33974	547.34674	341.08188	
3511	35.100	-120.09029	100.74599	-441.91846	319.18689	24.11691	-521.81995	-86.16997	20.09285	139.09845	338.74991	22.03248	109.68423	95.34420	747.53381	-728.79370	32.52536	597.98914	-532.55377	187.10472	604.59198	-542.61932	82.39994	551.61243	348.82584	229.99706	547.18207	341.93231	
3512	35.110	-119.29574	113.25574	-443.64575	319.05078	24.02563	-521.97705	-86.05268	20.30825	139.07486	338.84525	22.02374	109.71064	95.35139	747.21808	-728.66284	32.18150	597.90118	-531.55365	186.60092	604.50055	-541.58820	82.74777	551.45770	349.54626	230.13712	546.88995	342.57843	
3513	35.120	-118.01157	123.19396	-441.54099	318.93759	23.87749	-522.19592	-86.00514	20.32439	139.13173	338.91180	22.05757	109.71390	95.63474	747.01093	-728.35303	31.84664	597.89532	-530.68768	186.13107	604.53461	-540.94360	82.98179	551.00476	350.49606	230.55341	546.39099	343.41727	
3514	35.130	-116.49087	131.75478	-438.18195	319.03690	23.61698	-522.35822	-85.91752	20.29810	139.18373	338.96375	22.16459	109.62565	96.28647	746.70569	-728.10168	31.25694	597.73767	-529.64075	185.74054	604.42877	-540.18481	82.98960	550.76672	351.20047	230.67937	546.04352	344.17776	
3515	35.140	-116.95477	138.58559	-434.16046	318.96844	23.36663	-522.42651	-85.89478	20.24659	139.26074	339.11987	22.25498	109.66384	97.12723	746.33575	-728.02686	30.49090	597.43365	-529.19720	185.17084	604.24506	-539.43225	82.89959	550.44531	351.90543	230.32860	546.02576	344.74725	
3516	35.150	-116.53015	143.41277	-431.95135	318.91220	23.26717	-522.49579	-85.84263	20.21732	139.34030	339.18787	22.35171	109.60783	98.43589	746.03003	-727.82538	29.61104	597.13544	-528.51166	184.53612	604.00867	-538.74445	82.78147	550.38342	352.71826	229.84346	545.95978	345.32974	
3517	35.160	-115.92504	147.20010	-431.58365	318.61099	23.14913	-522.72192	-85.89004	20.32850	139.31528	339.19940	22.50437	109.46504	99.97919	745.77747	-727.70276	28.68288	596.88239	-527.78546	183.34447	603.81769	-538.26837	82.45679	550.50153	353.37897	229.60333	545.93311	345.84033	
3518	35.170	-114.75486	149.57359	-432.54312	318.52826	22.97194	-522.87463	-85.87672	20.47749	139.22585	339.28769	22.65360	109.33141	101.60914	745.66705	-728.06671	27.61117	596.66052	-526.98413	182.10695	603.43481	-537.81964	82.19612	550.43195	353.90793	229.64331	546.10736	346.65698	
3519	35.180	-112.83063	148.55246	-432.29782	318.69373	22.65613	-522.92017	-85.89393	20.70969	139.04877	339.24954	22.76591	109.23212	102.92986	745.38531	-728.34515	27.11815	596.31177	-526.62036	181.60490	603.09412	-537.15082	81.09678	550.55859	354.51288	228.56709	546.14746	347.12930	
3520	35.190	-111.54485	146.35855	-431.12085	319.00497	22.19073	-523.02942	-85.95449	20.58659	139.05064	339.25064	22.92405	109.19162	103.54251	745.33704	-728.70685	26.67506	595.82385	-526.07642	181.17921	602.96771	-536.51617	79.90596	550.40540	355.03796	227.27757	546.22388	347.65112	
3521	35.200	-110.59143	143.54626	-429.18832	319.27954	21.60901	-522.78662	-86.06599	20.30006	138.99805	339.11414	23.11407	109.21797	103.77248	745.24719	-729.02295	26.61219	595.48541	-525.63831	180.91556	602.83698	-536.09100	78.51396	550.23566	355.43677	225.73961	546.15070	348.16544	
3522	35.210	-110.27782	142.38680	-427.41852	319.56747	21.16438	-522.74103	-86.22716	19.91693	139.00430	338.96829	23.43770	109.26999	103.34299	745.20990	-729.19061	26.62290	595.03699	-525.25885	180.91992	602.57300	-535.44232	76.80006	549.94635	355.77414	224.02654	545.90363	349.09027	
3523	35.220	-110.36228	142.04663	-424.86740	319.65604	20.75156	-522.87152	-86.35468	19.78226	138.84821	338.90161	23.70810	109.38589	102.55860	745.23755	-729.23895	26.19355	594.67450	-525.09790	180.58615	602.05536	-534.95929	75.20526	549.85315	356.27005	222.56776	545.93939	349.47937	
3524	35.230	-111.38754	141.55054	-422.21735	319.70526	20.47884	-522.88080	-86.51947	19.89046	138.70784	338.75424	23.94595	109.43137	101.20885	745.57281	-729.28632	25.76522	594.21527	-524.84760	180.21155	601.80560	-534.57532	73.73945	549.64966	356.48593	221.24295	545.58630	349.83475	
3525	35.240	-112.32362	141.73927	-419.88043	319.95206	20.24681	-522.78607	-86.50751	19.95674	138.60870	338.75775	24.10748	109.42128	100.20924	745.54840	-729.29163	24.96652	593.93744	-524.47119	179.56032	601.32953	-534.04395	72.26540	549.49860	356.69754	219.43452	545.61133	350.49979	
3526	35.250	-113.10145	141.80890	-418.49637	319.66876	19.98406	-522.94415	-86.49652	20.11245	138.55261	338.72083	24.16953	109.34337	99.05817	745.47418	-729.33313	23.71181	593.75500	-524.19226	178.70723	601.47211	-533.91101	71.21626	549.54181	357.08496	218.70398	545.64954	350.71588	
3527	35.260	-114.05592	140.77831	-416.67188	319.16754	19.71058	-523.31818	-86.40131	20.19274	138.55800	338.80957	24.16800	109.26158	98.75394	745.50043	-729.25940	22.20996	593.02679	-523.80310	176.66269	600.60510	-533.65277	70.41568	549.67755	357.60873	218.37209	545.69159	351.61627	
3528	35.270	-114.92204	139.29520	-415.63419	319.05209	19.62707	-523.46222	-86.24786	20.26295	138.60104	338.95773	24.13779	109.03094	98.74524	745.45508	-729.30481	20.42061	593.07715	-523.80396	174.96367	600.37500	-533.46918	69.81671	549.60083	357.95172	217.12637	545.77515	351.09711	
3529	35.280	-115.27645	136.38708	-414.61389	318.84808	19.40153	-523.71704	-86.15182	20.38908	138.65858	339.00507	24.16822	108.73882	98.92185	745.35266	-729.34735	18.49747	592.40735	-523.26477	172.85031	600.05579	-533.26208	68.94802	549.64923	358.29077	216.27812	545.72711	351.28949	
3530	35.290	-116.45502	130.18118	-413.21582	318.76596	19.54148	-523.73114	-86.05183	20.52295	138.67522	339.39731	24.52919	108.73979	99.33140	745.26074	-729.42889	16.70973	592.33612	-522.74750	171.24802	599.90546	-532.82141	68.29636	549.67834	358.61017	215.45261	545.70081	351.48148	
3531	35.300	-117.77435	122.50108	-412.60641	318.58310	19.21282	-524.23737	-86.02495	20.65352	138.68608	339.26822	24.57477	108.58488	99.89594	745.28003	-729.37695	14.59360	591.93060	-522.35114	169.00017	599.68170	-532.78827	67.05865	549.58923	359.08490	214.31761	545.81384	351.78839	
3532	35.310	-118.42110	112.34915	-412.17764	318.51987	19.07554	-524.44659	-86.05516	20.60906	138.66759	339.13733	24.66101	108.36478	100.28539	745.31335	-729.34863	12.46681	591.94775	-522.09241	166.92134	599.42859	-532.62146	65.99049	549.66699	359.36502	213.02734	545.88733	351.98145	
3533	35.320	-119.26917	101.09493	-411.65967	318.79730	18.78286	-524.49927	-86.18578	20.39463	138.62526	339.01480	24.75331	108.30165	100.78491	745.23346	-729.41669	10.75102	591.67004	-521.66949	165.30168	599.38098	-532.10382	64.31786	549.76721	359.53351	211.54778	546.05054	352.14206	
3534	35.330	-119.25380	89.42204	-410.13715	318.83701	18.55287	-524.45856	-86.23704	20.15009	138.52837	338.93552	24.93931	108.28663	101.43906	745.06543	-729.29376	9.07801	591.40350	-521.56189	163.29800	599.36041	-532.21411	62.33056	549.66504	359.62448	209.66304	546.03210	352.23978	
3535	35.340	-119.70590	79.03281	-408.79044	318.97119	18.10714	-524.41992	-86.28060	20.10262	138.42529	338.86041	25.16069	108.23710	102.00466	744.94354	-729.32843	7.02492	591.51910	-521.69537	161.39090	599.14465	-532.05823	60.07806	549.63666	359.75635	207.63177	546.01935	352.63107	
